<svg width="79" height="62" viewBox="0 0 79 62" fill="none" xmlns="http://www.w3.org/2000/svg">
<rect width="79" height="62" fill="white"/>
<g clip-path="url(#clip0_0_1)">
<path d="M33.6773 42.0425C33.6773 42.0425 44.1686 40.7046 47.8406 38.5862C51.5126 36.4678 78.7902 35.4643 78.7902 42.0425C78.7902 48.6207 47.421 51.5195 47.421 51.5195L30.9495 50.5161L33.6773 42.0425Z" fill="#FBBEBE"/>
<path opacity="0.1" d="M33.6773 42.0425C33.6773 42.0425 44.1686 40.7046 47.8406 38.5862C51.5126 36.4678 78.7902 35.4643 78.7902 42.0425C78.7902 48.6207 47.421 51.5195 47.421 51.5195L30.9495 50.5161L33.6773 42.0425Z" fill="black"/>
<path d="M36.7198 40.8161L34.5166 47.6172L0 48.0632V38.0287C0 38.0287 13.2191 34.7954 23.7105 41.708C23.7105 41.708 36.0903 40.1471 36.7198 40.8161Z" fill="#17B174"/>
<path d="M76.1828 37.973C76.1828 38.353 75.3809 38.6351 75.3021 39.0016C75.2239 39.3652 75.7003 39.9181 75.5495 40.2653C75.3937 40.6204 75.2096 40.9606 74.9993 41.2823C74.8018 41.5828 74.1917 41.539 73.9416 41.8208C73.6967 42.0767 73.4372 42.3165 73.1647 42.5387C72.8993 42.7733 72.5397 42.8225 72.2379 43.0384C71.9509 43.2438 71.9856 43.997 71.6681 44.184C71.3648 44.3626 70.9005 44.2189 70.5714 44.3795C70.2555 44.5337 70.089 45.0912 69.7513 45.2276C69.4257 45.3591 69.0226 45.3025 68.6783 45.4164C68.3451 45.5266 67.9723 45.5087 67.6232 45.6015C67.2841 45.6916 67.0252 46.2317 66.6724 46.3045C66.3288 46.3755 65.9261 46.1863 65.5708 46.24C65.2238 46.2925 64.8202 45.8258 64.4632 45.8611C64.1139 45.8957 63.7846 46.1117 63.4268 46.1292C63.076 46.1463 62.7291 46.3105 62.3712 46.3105C62.0133 46.3105 61.6441 46.6673 61.2933 46.6502C60.9355 46.6327 60.6115 46.0919 60.2622 46.0574C59.9052 46.022 59.4794 46.5869 59.1323 46.5344C58.777 46.4807 58.4956 45.9278 58.1519 45.8568C57.7991 45.784 57.3435 46.1792 57.0044 46.089C56.6552 45.9962 56.4479 45.353 56.1147 45.2427C55.7704 45.1288 55.3436 45.2831 55.018 45.1516C54.6803 45.0152 54.2689 45.0371 53.953 44.883C53.6239 44.7223 53.3877 44.3423 53.0844 44.1636C52.7669 43.9766 52.6205 43.5129 52.3336 43.3075C52.0317 43.0915 51.5718 43.1191 51.3064 42.8845C51.0261 42.6368 50.5011 42.6239 50.2646 42.3574C50.0144 42.0755 49.9132 41.6023 49.7157 41.3017C49.5078 40.9852 49.916 40.316 49.7708 39.9814C49.6201 39.6343 48.9901 39.4932 48.9119 39.1297C48.8313 38.7501 48.7899 38.3622 48.7885 37.973C48.7885 37.593 49.3273 37.3026 49.4061 36.936C49.4843 36.5724 49.0878 36.0502 49.2385 35.703C49.3838 35.3684 49.3652 34.8541 49.5732 34.5375C49.7707 34.237 50.2636 34.1192 50.5137 33.8374C50.7502 33.5709 51.1735 33.4966 51.4538 33.2489C51.7192 33.0144 51.6854 32.3069 51.9872 32.091C52.2742 31.8856 52.6749 31.7919 52.9923 31.605C53.2957 31.4263 53.725 31.4564 54.054 31.2958C54.3699 31.1416 54.8646 31.4454 55.2022 31.309C55.5279 31.1775 55.792 30.8901 56.1363 30.7763C56.4695 30.666 56.6261 29.8254 56.9752 29.7326C57.3143 29.6425 57.7314 29.792 58.0842 29.7192C58.4278 29.6483 58.8902 30.3115 59.2455 30.2578C59.5925 30.2053 59.852 29.3199 60.209 29.2846C60.5584 29.25 60.9523 29.7086 61.3101 29.6911C61.661 29.674 62.0133 29.9427 62.3712 29.9427C62.729 29.9427 63.0856 29.5739 63.4364 29.591C63.7942 29.6085 64.1097 30.0958 64.459 30.1304C64.816 30.1657 65.2543 29.4245 65.6013 29.477C65.9566 29.5307 66.2312 30.1037 66.5748 30.1746C66.9276 30.2475 67.3695 29.8917 67.7086 29.9819C68.0578 30.0747 68.2679 30.6837 68.6011 30.794C68.9454 30.9079 69.1575 31.3375 69.4832 31.469C69.8209 31.6054 70.4482 30.9673 70.7641 31.1215C71.0932 31.2821 71.3774 31.5601 71.6807 31.7388C71.9982 31.9258 72.5029 31.8317 72.7898 32.0371C73.0917 32.2531 73.1659 32.8328 73.4313 33.0674C73.7116 33.3151 74.1738 33.3897 74.4103 33.6562C74.6605 33.938 74.6952 34.4431 74.8927 34.7436C75.1007 35.0601 75.0942 35.4987 75.2394 35.8333C75.3901 36.1804 75.7924 36.443 75.8705 36.8065C75.9493 37.173 76.1828 37.5931 76.1828 37.973Z" fill="#77BB11"/>
<path d="M38.3984 44.9414C38.3984 44.9414 50.2537 38.4747 57.9124 40.9276C65.5711 43.3804 76.2723 39.1437 77.5312 40.5931C78.7902 42.0425 80.5737 57.6517 65.4661 58.5437C50.3586 59.4356 37.4542 55.8678 37.4542 55.8678L38.3984 44.9414Z" fill="#FBBEBE"/>
<path d="M57.5326 10.8193C57.0854 10.8462 56.6541 11.0049 56.287 11.2777C55.9199 11.5504 55.6315 11.9265 55.4543 12.3636C54.9346 13.6986 55.6037 15.2668 56.6082 16.2403C57.6127 17.2138 58.9031 17.7703 60.0755 18.5017C61.6502 19.4841 63.0652 20.8478 63.8531 22.5984C64.641 24.349 64.7248 26.5174 63.7986 28.1898C62.939 29.7421 61.3759 30.6711 59.8851 31.5279" stroke="#77BB11" stroke-miterlimit="10"/>
<path d="M61.7292 2.68027C61.282 2.70711 60.8506 2.86582 60.4835 3.13859C60.1164 3.41136 59.8281 3.78741 59.6509 4.22457C59.1312 5.55958 59.8003 7.12776 60.8048 8.10126C61.8093 9.07477 63.0996 9.63122 64.272 10.3626C65.8467 11.345 67.2617 12.7088 68.0496 14.4594C68.8375 16.2099 68.9213 18.3784 67.9952 20.0508C67.1355 21.6031 65.5724 22.5321 64.0817 23.3889" stroke="#77BB11" stroke-miterlimit="10"/>
<path d="M75.5271 4.55221C75.158 4.28249 74.7255 4.12736 74.2781 4.10423C73.8307 4.08109 73.3861 4.19085 72.9941 4.42121C71.8142 5.13874 71.4399 6.81405 71.6734 8.23732C71.9069 9.66059 72.6067 10.94 73.1124 12.2811C73.7916 14.0824 74.1249 16.0813 73.7395 17.9781C73.3542 19.8749 72.1713 21.6441 70.4756 22.364C68.9017 23.0321 67.1305 22.7498 65.4582 22.4574" stroke="#77BB11" stroke-miterlimit="10"/>
<path d="M63.3679 21.3778C64.7585 21.3778 65.8858 20.7959 65.8858 20.0781C65.8858 19.3603 64.7585 18.7784 63.3679 18.7784C61.9772 18.7784 60.8499 19.3603 60.8499 20.0781C60.8499 20.7959 61.9772 21.3778 63.3679 21.3778Z" fill="#57B894"/>
<path d="M63.0531 21.1549C64.4437 21.1549 65.571 20.573 65.571 19.8552C65.571 19.1374 64.4437 18.5555 63.0531 18.5555C61.6625 18.5555 60.5352 19.1374 60.5352 19.8552C60.5352 20.573 61.6625 21.1549 63.0531 21.1549Z" stroke="#77BB11" stroke-miterlimit="10"/>
<path d="M68.8234 20.2629C70.214 20.2629 71.3413 19.681 71.3413 18.9632C71.3413 18.2454 70.214 17.6635 68.8234 17.6635C67.4328 17.6635 66.3055 18.2454 66.3055 18.9632C66.3055 19.681 67.4328 20.2629 68.8234 20.2629Z" fill="#57B894"/>
<path d="M68.5086 20.0399C69.8992 20.0399 71.0266 19.458 71.0266 18.7402C71.0266 18.0224 69.8992 17.4405 68.5086 17.4405C67.118 17.4405 65.9907 18.0224 65.9907 18.7402C65.9907 19.458 67.118 20.0399 68.5086 20.0399Z" stroke="#77BB11" stroke-miterlimit="10"/>
<path d="M69.6627 25.1687C71.0533 25.1687 72.1806 24.5868 72.1806 23.869C72.1806 23.1511 71.0533 22.5692 69.6627 22.5692C68.2721 22.5692 67.1448 23.1511 67.1448 23.869C67.1448 24.5868 68.2721 25.1687 69.6627 25.1687Z" fill="#57B894"/>
<path d="M69.3479 24.9456C70.7386 24.9456 71.8659 24.3638 71.8659 23.646C71.8659 22.9281 70.7386 22.3463 69.3479 22.3463C67.9573 22.3463 66.83 22.9281 66.83 23.646C66.83 24.3638 67.9573 24.9456 69.3479 24.9456Z" stroke="#77BB11" stroke-miterlimit="10"/>
<path d="M69.1381 12.9043C70.5287 12.9043 71.656 12.3224 71.656 11.6046C71.656 10.8868 70.5287 10.3049 69.1381 10.3049C67.7475 10.3049 66.6202 10.8868 66.6202 11.6046C66.6202 12.3224 67.7475 12.9043 69.1381 12.9043Z" fill="#57B894"/>
<path d="M68.8234 12.6813C70.214 12.6813 71.3413 12.0994 71.3413 11.3816C71.3413 10.6637 70.214 10.0818 68.8234 10.0818C67.4328 10.0818 66.3055 10.6637 66.3055 11.3816C66.3055 12.0994 67.4328 12.6813 68.8234 12.6813Z" stroke="#77BB11" stroke-miterlimit="10"/>
<path d="M62.8433 12.1238C64.2339 12.1238 65.3612 11.5419 65.3612 10.8241C65.3612 10.1063 64.2339 9.52438 62.8433 9.52438C61.4527 9.52438 60.3254 10.1063 60.3254 10.8241C60.3254 11.5419 61.4527 12.1238 62.8433 12.1238Z" fill="#57B894"/>
<path d="M62.5285 11.9008C63.9192 11.9008 65.0465 11.3189 65.0465 10.6011C65.0465 9.88332 63.9192 9.30142 62.5285 9.30142C61.1379 9.30142 60.0106 9.88332 60.0106 10.6011C60.0106 11.3189 61.1379 11.9008 62.5285 11.9008Z" stroke="#77BB11" stroke-miterlimit="10"/>
<path d="M65.676 9.33644C67.0666 9.33644 68.1939 8.75454 68.1939 8.03674C68.1939 7.31893 67.0666 6.73703 65.676 6.73703C64.2853 6.73703 63.158 7.31893 63.158 8.03674C63.158 8.75454 64.2853 9.33644 65.676 9.33644Z" fill="#57B894"/>
<path d="M65.3612 9.11345C66.7518 9.11345 67.8791 8.53155 67.8791 7.81374C67.8791 7.09594 66.7518 6.51404 65.3612 6.51404C63.9706 6.51404 62.8433 7.09594 62.8433 7.81374C62.8433 8.53155 63.9706 9.11345 65.3612 9.11345Z" stroke="#77BB11" stroke-miterlimit="10"/>
<path d="M71.8659 9.89391C73.2565 9.89391 74.3838 9.31201 74.3838 8.5942C74.3838 7.87639 73.2565 7.29449 71.8659 7.29449C70.4753 7.29449 69.348 7.87639 69.348 8.5942C69.348 9.31201 70.4753 9.89391 71.8659 9.89391Z" fill="#57B894"/>
<path d="M71.5511 9.67094C72.9417 9.67094 74.069 9.08905 74.069 8.37124C74.069 7.65343 72.9417 7.07153 71.5511 7.07153C70.1605 7.07153 69.0332 7.65343 69.0332 8.37124C69.0332 9.08905 70.1605 9.67094 71.5511 9.67094Z" stroke="#77BB11" stroke-miterlimit="10"/>
<path d="M76.4821 13.5732C77.8727 13.5732 79 12.9913 79 12.2735C79 11.5557 77.8727 10.9738 76.4821 10.9738C75.0915 10.9738 73.9641 11.5557 73.9641 12.2735C73.9641 12.9913 75.0915 13.5732 76.4821 13.5732Z" fill="#57B894"/>
<path d="M76.1673 13.3502C77.558 13.3502 78.6853 12.7683 78.6853 12.0505C78.6853 11.3327 77.558 10.7508 76.1673 10.7508C74.7767 10.7508 73.6494 11.3327 73.6494 12.0505C73.6494 12.7683 74.7767 13.3502 76.1673 13.3502Z" stroke="#77BB11" stroke-miterlimit="10"/>
<path d="M60.2204 7.10655C61.6111 7.10655 62.7384 6.52465 62.7384 5.80685C62.7384 5.08904 61.6111 4.50714 60.2204 4.50714C58.8298 4.50714 57.7025 5.08904 57.7025 5.80685C57.7025 6.52465 58.8298 7.10655 60.2204 7.10655Z" fill="#57B894"/>
<path d="M59.9057 6.88356C61.2963 6.88356 62.4236 6.30166 62.4236 5.58386C62.4236 4.86605 61.2963 4.28415 59.9057 4.28415C58.5151 4.28415 57.3878 4.86605 57.3878 5.58386C57.3878 6.30166 58.5151 6.88356 59.9057 6.88356Z" stroke="#77BB11" stroke-miterlimit="10"/>
<path d="M61.7942 2.86977C63.1848 2.86977 64.3121 2.28787 64.3121 1.57006C64.3121 0.852253 63.1848 0.270355 61.7942 0.270355C60.4036 0.270355 59.2762 0.852253 59.2762 1.57006C59.2762 2.28787 60.4036 2.86977 61.7942 2.86977Z" fill="#57B894"/>
<path d="M61.4794 2.6468C62.87 2.6468 63.9973 2.06491 63.9973 1.3471C63.9973 0.629291 62.87 0.0473938 61.4794 0.0473938C60.0888 0.0473938 58.9615 0.629291 58.9615 1.3471C58.9615 2.06491 60.0888 2.6468 61.4794 2.6468Z" stroke="#77BB11" stroke-miterlimit="10"/>
<path d="M76.3772 5.99162C77.7678 5.99162 78.8951 5.40973 78.8951 4.69192C78.8951 3.97411 77.7678 3.39221 76.3772 3.39221C74.9865 3.39221 73.8592 3.97411 73.8592 4.69192C73.8592 5.40973 74.9865 5.99162 76.3772 5.99162Z" fill="#57B894"/>
<path d="M76.0624 5.76863C77.453 5.76863 78.5803 5.18673 78.5803 4.46893C78.5803 3.75112 77.453 3.16922 76.0624 3.16922C74.6718 3.16922 73.5445 3.75112 73.5445 4.46893C73.5445 5.18673 74.6718 5.76863 76.0624 5.76863Z" stroke="#77BB11" stroke-miterlimit="10"/>
<path d="M53.1912 16.2491C54.5819 16.2491 55.7092 15.6672 55.7092 14.9494C55.7092 14.2316 54.5819 13.6497 53.1912 13.6497C51.8006 13.6497 50.6733 14.2316 50.6733 14.9494C50.6733 15.6672 51.8006 16.2491 53.1912 16.2491Z" fill="#57B894"/>
<path d="M52.8765 16.0261C54.2671 16.0261 55.3944 15.4442 55.3944 14.7264C55.3944 14.0086 54.2671 13.4267 52.8765 13.4267C51.4859 13.4267 50.3586 14.0086 50.3586 14.7264C50.3586 15.4442 51.4859 16.0261 52.8765 16.0261Z" stroke="#77BB11" stroke-miterlimit="10"/>
<path d="M61.8991 15.5801C63.2897 15.5801 64.417 14.9982 64.417 14.2804C64.417 13.5626 63.2897 12.9807 61.8991 12.9807C60.5085 12.9807 59.3811 13.5626 59.3811 14.2804C59.3811 14.9982 60.5085 15.5801 61.8991 15.5801Z" fill="#57B894"/>
<path d="M61.5843 15.3571C62.9749 15.3571 64.1023 14.7752 64.1023 14.0574C64.1023 13.3396 62.9749 12.7577 61.5843 12.7577C60.1937 12.7577 59.0664 13.3396 59.0664 14.0574C59.0664 14.7752 60.1937 15.3571 61.5843 15.3571Z" stroke="#77BB11" stroke-miterlimit="10"/>
<path d="M73.3347 16.5836C74.7253 16.5836 75.8526 16.0017 75.8526 15.2839C75.8526 14.5661 74.7253 13.9842 73.3347 13.9842C71.9441 13.9842 70.8167 14.5661 70.8167 15.2839C70.8167 16.0017 71.9441 16.5836 73.3347 16.5836Z" fill="#57B894"/>
<path d="M73.0199 16.3606C74.4105 16.3606 75.5378 15.7787 75.5378 15.0609C75.5378 14.3431 74.4105 13.7612 73.0199 13.7612C71.6293 13.7612 70.502 14.3431 70.502 15.0609C70.502 15.7787 71.6293 16.3606 73.0199 16.3606Z" stroke="#77BB11" stroke-miterlimit="10"/>
<path d="M67.2497 17.0296C68.6403 17.0296 69.7676 16.4477 69.7676 15.7299C69.7676 15.012 68.6403 14.4301 67.2497 14.4301C65.8591 14.4301 64.7318 15.012 64.7318 15.7299C64.7318 16.4477 65.8591 17.0296 67.2497 17.0296Z" fill="#57B894"/>
<path d="M66.9349 16.8066C68.3255 16.8066 69.4529 16.2247 69.4529 15.5069C69.4529 14.7891 68.3255 14.2072 66.9349 14.2072C65.5443 14.2072 64.417 14.7891 64.417 15.5069C64.417 16.2247 65.5443 16.8066 66.9349 16.8066Z" stroke="#77BB11" stroke-miterlimit="10"/>
<path d="M67.6693 5.88011C69.0599 5.88011 70.1872 5.29821 70.1872 4.58041C70.1872 3.8626 69.0599 3.2807 67.6693 3.2807C66.2787 3.2807 65.1514 3.8626 65.1514 4.58041C65.1514 5.29821 66.2787 5.88011 67.6693 5.88011Z" fill="#57B894"/>
<path d="M67.3546 5.65716C68.7452 5.65716 69.8725 5.07526 69.8725 4.35745C69.8725 3.63964 68.7452 3.05774 67.3546 3.05774C65.964 3.05774 64.8367 3.63964 64.8367 4.35745C64.8367 5.07526 65.964 5.65716 67.3546 5.65716Z" stroke="#77BB11" stroke-miterlimit="10"/>
<path d="M56.8632 12.7928C58.2538 12.7928 59.3811 12.2109 59.3811 11.4931C59.3811 10.7753 58.2538 10.1934 56.8632 10.1934C55.4726 10.1934 54.3453 10.7753 54.3453 11.4931C54.3453 12.2109 55.4726 12.7928 56.8632 12.7928Z" fill="#57B894"/>
<path d="M56.5485 12.5698C57.9391 12.5698 59.0664 11.9879 59.0664 11.2701C59.0664 10.5523 57.9391 9.97037 56.5485 9.97037C55.1579 9.97037 54.0305 10.5523 54.0305 11.2701C54.0305 11.9879 55.1579 12.5698 56.5485 12.5698Z" stroke="#77BB11" stroke-miterlimit="10"/>
<path d="M58.332 17.81C59.7226 17.81 60.8499 17.2281 60.8499 16.5103C60.8499 15.7925 59.7226 15.2106 58.332 15.2106C56.9414 15.2106 55.8141 15.7925 55.8141 16.5103C55.8141 17.2281 56.9414 17.81 58.332 17.81Z" fill="#57B894"/>
<path d="M58.0173 17.587C59.4079 17.587 60.5352 17.0051 60.5352 16.2873C60.5352 15.5695 59.4079 14.9876 58.0173 14.9876C56.6266 14.9876 55.4993 15.5695 55.4993 16.2873C55.4993 17.0051 56.6266 17.587 58.0173 17.587Z" stroke="#77BB11" stroke-miterlimit="10"/>
<g opacity="0.3">
<path opacity="0.3" d="M58.3906 25.3847C58.746 24.7089 58.8109 24.0284 58.5355 23.8648C58.2601 23.7013 57.7487 24.1165 57.3933 24.7924C57.0378 25.4682 56.973 26.1487 57.2484 26.3122C57.5238 26.4758 58.0352 26.0605 58.3906 25.3847Z" fill="#57B894"/>
<path opacity="0.3" d="M58.2246 25.4869C58.58 24.811 58.6449 24.1306 58.3695 23.967C58.0941 23.8034 57.5827 24.2187 57.2272 24.8945C56.8718 25.5703 56.8069 26.2508 57.0824 26.4144C57.3578 26.578 57.8692 26.1627 58.2246 25.4869Z" stroke="#77BB11" stroke-miterlimit="10"/>
</g>
<g opacity="0.3">
<path opacity="0.3" d="M71.5151 28.6246C71.7255 28.3748 71.456 27.7537 70.9132 27.2374C70.3703 26.721 69.7597 26.505 69.5492 26.7548C69.3388 27.0047 69.6084 27.6258 70.1512 28.1421C70.6941 28.6584 71.3047 28.8745 71.5151 28.6246Z" fill="#57B894"/>
<path opacity="0.3" d="M71.4576 28.4301C71.668 28.1803 71.3985 27.5592 70.8556 27.0429C70.3128 26.5265 69.7021 26.3105 69.4917 26.5603C69.2813 26.8102 69.5508 27.4313 70.0937 27.9476C70.6366 28.4639 71.2472 28.68 71.4576 28.4301Z" stroke="#77BB11" stroke-miterlimit="10"/>
</g>
<g opacity="0.3">
<path opacity="0.3" d="M59.7648 21.6005C59.9753 21.3507 59.7057 20.7296 59.1629 20.2132C58.62 19.6969 58.0094 19.4809 57.7989 19.7307C57.5885 19.9806 57.858 20.6017 58.4009 21.118C58.9438 21.6343 59.5544 21.8503 59.7648 21.6005Z" fill="#57B894"/>
<path opacity="0.3" d="M59.7073 21.406C59.9177 21.1562 59.6482 20.5351 59.1054 20.0187C58.5625 19.5024 57.9518 19.2864 57.7414 19.5362C57.531 19.7861 57.8005 20.4072 58.3434 20.9235C58.8863 21.4398 59.4969 21.6559 59.7073 21.406Z" stroke="#77BB11" stroke-miterlimit="10"/>
</g>
<path opacity="0.1" d="M36.7198 40.7825L34.5166 47.5836L0 48.0296V37.9951C0 37.9951 13.2191 34.7617 23.7105 41.6744C23.7105 41.6744 36.0903 40.1135 36.7198 40.7825Z" fill="black"/>
<path d="M33.9124 44.0073C33.9124 44.0073 38.5927 43.6925 38.3829 45.4764C38.173 47.2603 37.9632 61.0856 36.7043 61.4201C35.4453 61.7546 25.4785 61.7546 21.3869 61.7546H-1.69415V40.3798C-1.69415 40.3798 14.6724 39.3443 22.8556 43.6925C22.8556 43.6925 32.6942 43.5416 33.9124 44.0073Z" fill="#17B174"/>
</g>
<defs>
<clipPath id="clip0_0_1">
<rect width="79" height="62" fill="white"/>
</clipPath>
</defs>
</svg>
